<svg xmlns="http://www.w3.org/2000/svg" width="980" height="360" role="img" aria-label="K1-K10 scoring heatmap">
    <rect width="100%" height="100%" fill="#ffffff" />
    <text x="20" y="28" font-size="20" font-weight="700" fill="#0f172a">K1-K10 heatmap</text>
    <text x="185" y="58" font-size="13" text-anchor="middle" fill="#334155">K1</text><text x="239" y="58" font-size="13" text-anchor="middle" fill="#334155">K2</text><text x="293" y="58" font-size="13" text-anchor="middle" fill="#334155">K3</text><text x="347" y="58" font-size="13" text-anchor="middle" fill="#334155">K4</text><text x="401" y="58" font-size="13" text-anchor="middle" fill="#334155">K5</text><text x="455" y="58" font-size="13" text-anchor="middle" fill="#334155">K6</text><text x="509" y="58" font-size="13" text-anchor="middle" fill="#334155">K7</text><text x="563" y="58" font-size="13" text-anchor="middle" fill="#334155">K8</text><text x="617" y="58" font-size="13" text-anchor="middle" fill="#334155">K9</text><text x="671" y="58" font-size="13" text-anchor="middle" fill="#334155">K10</text>
    <text x="20" y="100" font-size="14" fill="#334155">Web Components</text><rect x="158" y="76" width="44" height="38" rx="4" fill="#bbf7d0" stroke="#cbd5e1" /><text x="180" y="100" font-size="15" text-anchor="middle" fill="#0f172a">3</text><rect x="212" y="76" width="44" height="38" rx="4" fill="#bbf7d0" stroke="#cbd5e1" /><text x="234" y="100" font-size="15" text-anchor="middle" fill="#0f172a">3</text><rect x="266" y="76" width="44" height="38" rx="4" fill="#bbf7d0" stroke="#cbd5e1" /><text x="288" y="100" font-size="15" text-anchor="middle" fill="#0f172a">3</text><rect x="320" y="76" width="44" height="38" rx="4" fill="#fee2e2" stroke="#cbd5e1" /><text x="342" y="100" font-size="15" text-anchor="middle" fill="#0f172a">1</text><rect x="374" y="76" width="44" height="38" rx="4" fill="#bbf7d0" stroke="#cbd5e1" /><text x="396" y="100" font-size="15" text-anchor="middle" fill="#0f172a">3</text><rect x="428" y="76" width="44" height="38" rx="4" fill="#bbf7d0" stroke="#cbd5e1" /><text x="450" y="100" font-size="15" text-anchor="middle" fill="#0f172a">3</text><rect x="482" y="76" width="44" height="38" rx="4" fill="#fee2e2" stroke="#cbd5e1" /><text x="504" y="100" font-size="15" text-anchor="middle" fill="#0f172a">1</text><rect x="536" y="76" width="44" height="38" rx="4" fill="#fde68a" stroke="#cbd5e1" /><text x="558" y="100" font-size="15" text-anchor="middle" fill="#0f172a">2</text><rect x="590" y="76" width="44" height="38" rx="4" fill="#bbf7d0" stroke="#cbd5e1" /><text x="612" y="100" font-size="15" text-anchor="middle" fill="#0f172a">3</text><rect x="644" y="76" width="44" height="38" rx="4" fill="#fee2e2" stroke="#cbd5e1" /><text x="666" y="100" font-size="15" text-anchor="middle" fill="#0f172a">1</text><text x="20" y="154" font-size="14" fill="#334155">React</text><rect x="158" y="130" width="44" height="38" rx="4" fill="#bbf7d0" stroke="#cbd5e1" /><text x="180" y="154" font-size="15" text-anchor="middle" fill="#0f172a">3</text><rect x="212" y="130" width="44" height="38" rx="4" fill="#fde68a" stroke="#cbd5e1" /><text x="234" y="154" font-size="15" text-anchor="middle" fill="#0f172a">2</text><rect x="266" y="130" width="44" height="38" rx="4" fill="#fee2e2" stroke="#cbd5e1" /><text x="288" y="154" font-size="15" text-anchor="middle" fill="#0f172a">1</text><rect x="320" y="130" width="44" height="38" rx="4" fill="#bbf7d0" stroke="#cbd5e1" /><text x="342" y="154" font-size="15" text-anchor="middle" fill="#0f172a">3</text><rect x="374" y="130" width="44" height="38" rx="4" fill="#fee2e2" stroke="#cbd5e1" /><text x="396" y="154" font-size="15" text-anchor="middle" fill="#0f172a">1</text><rect x="428" y="130" width="44" height="38" rx="4" fill="#fee2e2" stroke="#cbd5e1" /><text x="450" y="154" font-size="15" text-anchor="middle" fill="#0f172a">1</text><rect x="482" y="130" width="44" height="38" rx="4" fill="#bbf7d0" stroke="#cbd5e1" /><text x="504" y="154" font-size="15" text-anchor="middle" fill="#0f172a">3</text><rect x="536" y="130" width="44" height="38" rx="4" fill="#bbf7d0" stroke="#cbd5e1" /><text x="558" y="154" font-size="15" text-anchor="middle" fill="#0f172a">3</text><rect x="590" y="130" width="44" height="38" rx="4" fill="#fee2e2" stroke="#cbd5e1" /><text x="612" y="154" font-size="15" text-anchor="middle" fill="#0f172a">1</text><rect x="644" y="130" width="44" height="38" rx="4" fill="#bbf7d0" stroke="#cbd5e1" /><text x="666" y="154" font-size="15" text-anchor="middle" fill="#0f172a">3</text><text x="20" y="208" font-size="14" fill="#334155">Vue.js</text><rect x="158" y="184" width="44" height="38" rx="4" fill="#bbf7d0" stroke="#cbd5e1" /><text x="180" y="208" font-size="15" text-anchor="middle" fill="#0f172a">3</text><rect x="212" y="184" width="44" height="38" rx="4" fill="#fde68a" stroke="#cbd5e1" /><text x="234" y="208" font-size="15" text-anchor="middle" fill="#0f172a">2</text><rect x="266" y="184" width="44" height="38" rx="4" fill="#fee2e2" stroke="#cbd5e1" /><text x="288" y="208" font-size="15" text-anchor="middle" fill="#0f172a">1</text><rect x="320" y="184" width="44" height="38" rx="4" fill="#bbf7d0" stroke="#cbd5e1" /><text x="342" y="208" font-size="15" text-anchor="middle" fill="#0f172a">3</text><rect x="374" y="184" width="44" height="38" rx="4" fill="#fde68a" stroke="#cbd5e1" /><text x="396" y="208" font-size="15" text-anchor="middle" fill="#0f172a">2</text><rect x="428" y="184" width="44" height="38" rx="4" fill="#fee2e2" stroke="#cbd5e1" /><text x="450" y="208" font-size="15" text-anchor="middle" fill="#0f172a">1</text><rect x="482" y="184" width="44" height="38" rx="4" fill="#bbf7d0" stroke="#cbd5e1" /><text x="504" y="208" font-size="15" text-anchor="middle" fill="#0f172a">3</text><rect x="536" y="184" width="44" height="38" rx="4" fill="#fde68a" stroke="#cbd5e1" /><text x="558" y="208" font-size="15" text-anchor="middle" fill="#0f172a">2</text><rect x="590" y="184" width="44" height="38" rx="4" fill="#fde68a" stroke="#cbd5e1" /><text x="612" y="208" font-size="15" text-anchor="middle" fill="#0f172a">2</text><rect x="644" y="184" width="44" height="38" rx="4" fill="#bbf7d0" stroke="#cbd5e1" /><text x="666" y="208" font-size="15" text-anchor="middle" fill="#0f172a">3</text><text x="20" y="262" font-size="14" fill="#334155">Svelte</text><rect x="158" y="238" width="44" height="38" rx="4" fill="#bbf7d0" stroke="#cbd5e1" /><text x="180" y="262" font-size="15" text-anchor="middle" fill="#0f172a">3</text><rect x="212" y="238" width="44" height="38" rx="4" fill="#fde68a" stroke="#cbd5e1" /><text x="234" y="262" font-size="15" text-anchor="middle" fill="#0f172a">2</text><rect x="266" y="238" width="44" height="38" rx="4" fill="#fee2e2" stroke="#cbd5e1" /><text x="288" y="262" font-size="15" text-anchor="middle" fill="#0f172a">1</text><rect x="320" y="238" width="44" height="38" rx="4" fill="#bbf7d0" stroke="#cbd5e1" /><text x="342" y="262" font-size="15" text-anchor="middle" fill="#0f172a">3</text><rect x="374" y="238" width="44" height="38" rx="4" fill="#fde68a" stroke="#cbd5e1" /><text x="396" y="262" font-size="15" text-anchor="middle" fill="#0f172a">2</text><rect x="428" y="238" width="44" height="38" rx="4" fill="#fde68a" stroke="#cbd5e1" /><text x="450" y="262" font-size="15" text-anchor="middle" fill="#0f172a">2</text><rect x="482" y="238" width="44" height="38" rx="4" fill="#fde68a" stroke="#cbd5e1" /><text x="504" y="262" font-size="15" text-anchor="middle" fill="#0f172a">2</text><rect x="536" y="238" width="44" height="38" rx="4" fill="#fde68a" stroke="#cbd5e1" /><text x="558" y="262" font-size="15" text-anchor="middle" fill="#0f172a">2</text><rect x="590" y="238" width="44" height="38" rx="4" fill="#fde68a" stroke="#cbd5e1" /><text x="612" y="262" font-size="15" text-anchor="middle" fill="#0f172a">2</text><rect x="644" y="238" width="44" height="38" rx="4" fill="#fde68a" stroke="#cbd5e1" /><text x="666" y="262" font-size="15" text-anchor="middle" fill="#0f172a">2</text><text x="20" y="316" font-size="14" fill="#334155">Lit</text><rect x="158" y="292" width="44" height="38" rx="4" fill="#bbf7d0" stroke="#cbd5e1" /><text x="180" y="316" font-size="15" text-anchor="middle" fill="#0f172a">3</text><rect x="212" y="292" width="44" height="38" rx="4" fill="#bbf7d0" stroke="#cbd5e1" /><text x="234" y="316" font-size="15" text-anchor="middle" fill="#0f172a">3</text><rect x="266" y="292" width="44" height="38" rx="4" fill="#bbf7d0" stroke="#cbd5e1" /><text x="288" y="316" font-size="15" text-anchor="middle" fill="#0f172a">3</text><rect x="320" y="292" width="44" height="38" rx="4" fill="#fde68a" stroke="#cbd5e1" /><text x="342" y="316" font-size="15" text-anchor="middle" fill="#0f172a">2</text><rect x="374" y="292" width="44" height="38" rx="4" fill="#bbf7d0" stroke="#cbd5e1" /><text x="396" y="316" font-size="15" text-anchor="middle" fill="#0f172a">3</text><rect x="428" y="292" width="44" height="38" rx="4" fill="#bbf7d0" stroke="#cbd5e1" /><text x="450" y="316" font-size="15" text-anchor="middle" fill="#0f172a">3</text><rect x="482" y="292" width="44" height="38" rx="4" fill="#fde68a" stroke="#cbd5e1" /><text x="504" y="316" font-size="15" text-anchor="middle" fill="#0f172a">2</text><rect x="536" y="292" width="44" height="38" rx="4" fill="#fde68a" stroke="#cbd5e1" /><text x="558" y="316" font-size="15" text-anchor="middle" fill="#0f172a">2</text><rect x="590" y="292" width="44" height="38" rx="4" fill="#bbf7d0" stroke="#cbd5e1" /><text x="612" y="316" font-size="15" text-anchor="middle" fill="#0f172a">3</text><rect x="644" y="292" width="44" height="38" rx="4" fill="#fde68a" stroke="#cbd5e1" /><text x="666" y="316" font-size="15" text-anchor="middle" fill="#0f172a">2</text>
  </svg>
