<svg xmlns="http://www.w3.org/2000/svg" width="920" height="390" role="img" aria-label="Update time">
    <rect width="100%" height="100%" fill="#ffffff" />
    <text x="20" y="28" font-size="20" font-weight="700" fill="#0f172a">Update time, ms</text>
    <text x="20" y="80" font-size="14" fill="#334155">Web Components</text><rect x="170" y="58" width="560" height="10" fill="#2563eb" /><text x="738" y="67" font-size="11" fill="#334155">70.5</text><rect x="170" y="72" width="478.6609929078014" height="10" fill="#16a34a" /><text x="656.6609929078014" y="81" font-size="11" fill="#334155">60.26</text><rect x="170" y="86" width="507.73333333333335" height="10" fill="#d97706" /><text x="685.7333333333333" y="95" font-size="11" fill="#334155">63.92</text><text x="20" y="138" font-size="14" fill="#334155">React</text><rect x="170" y="116" width="500.74326241134753" height="10" fill="#2563eb" /><text x="678.7432624113476" y="125" font-size="11" fill="#334155">63.04</text><rect x="170" y="130" width="490.89361702127655" height="10" fill="#16a34a" /><text x="668.8936170212766" y="139" font-size="11" fill="#334155">61.8</text><rect x="170" y="144" width="485.17446808510635" height="10" fill="#d97706" /><text x="663.1744680851064" y="153" font-size="11" fill="#334155">61.08</text><text x="20" y="196" font-size="14" fill="#334155">Vue.js</text><rect x="170" y="174" width="478.1843971631206" height="10" fill="#2563eb" /><text x="656.1843971631206" y="183" font-size="11" fill="#334155">60.2</text><rect x="170" y="188" width="437.35602836879434" height="10" fill="#16a34a" /><text x="615.3560283687943" y="197" font-size="11" fill="#334155">55.06</text><rect x="170" y="202" width="437.9914893617021" height="10" fill="#d97706" /><text x="615.9914893617022" y="211" font-size="11" fill="#334155">55.14</text><text x="20" y="254" font-size="14" fill="#334155">Svelte</text><rect x="170" y="232" width="492.00567375886527" height="10" fill="#2563eb" /><text x="670.0056737588652" y="241" font-size="11" fill="#334155">61.94</text><rect x="170" y="246" width="461.02695035460994" height="10" fill="#16a34a" /><text x="639.0269503546099" y="255" font-size="11" fill="#334155">58.04</text><rect x="170" y="260" width="460.23262411347514" height="10" fill="#d97706" /><text x="638.2326241134751" y="269" font-size="11" fill="#334155">57.94</text><text x="20" y="312" font-size="14" fill="#334155">Lit</text><rect x="170" y="290" width="504.7148936170213" height="10" fill="#2563eb" /><text x="682.7148936170213" y="299" font-size="11" fill="#334155">63.54</text><rect x="170" y="304" width="463.88652482269504" height="10" fill="#16a34a" /><text x="641.886524822695" y="313" font-size="11" fill="#334155">58.4</text><rect x="170" y="318" width="437.51489361702124" height="10" fill="#d97706" /><text x="615.5148936170212" y="327" font-size="11" fill="#334155">55.08</text>
    <rect x="170" y="350" width="14" height="14" fill="#2563eb" /><text x="190" y="362" font-size="12" fill="#334155">Search</text><rect x="280" y="350" width="14" height="14" fill="#16a34a" /><text x="300" y="362" font-size="12" fill="#334155">Filter</text><rect x="390" y="350" width="14" height="14" fill="#d97706" /><text x="410" y="362" font-size="12" fill="#334155">Sort</text>
  </svg>
