<svg xmlns="http://www.w3.org/2000/svg" width="920" height="390" role="img" aria-label="Update time">
    <rect width="100%" height="100%" fill="#ffffff" />
    <text x="20" y="28" font-size="20" font-weight="700" fill="#0f172a">Update time, ms</text>
    <text x="20" y="80" font-size="14" fill="#334155">Web Components</text><rect x="170" y="58" width="533.3587059942911" height="10" fill="#2563eb" /><text x="711.3587059942911" y="67" font-size="11" fill="#334155">60.06</text><rect x="170" y="72" width="496.9489375198224" height="10" fill="#16a34a" /><text x="674.9489375198224" y="81" font-size="11" fill="#334155">55.96</text><rect x="170" y="86" width="523.057405645417" height="10" fill="#d97706" /><text x="701.057405645417" y="95" font-size="11" fill="#334155">58.9</text><text x="20" y="138" font-size="14" fill="#334155">React</text><rect x="170" y="116" width="544.5480494766888" height="10" fill="#2563eb" /><text x="722.5480494766888" y="125" font-size="11" fill="#334155">61.32</text><rect x="170" y="130" width="521.6365366317792" height="10" fill="#16a34a" /><text x="699.6365366317792" y="139" font-size="11" fill="#334155">58.74</text><rect x="170" y="144" width="524.3006660323501" height="10" fill="#d97706" /><text x="702.3006660323501" y="153" font-size="11" fill="#334155">59.04</text><text x="20" y="196" font-size="14" fill="#334155">Vue.js</text><rect x="170" y="174" width="560" height="10" fill="#2563eb" /><text x="738" y="183" font-size="11" fill="#334155">63.06</text><rect x="170" y="188" width="460.0063431652394" height="10" fill="#16a34a" /><text x="638.0063431652394" y="197" font-size="11" fill="#334155">51.8</text><rect x="170" y="202" width="491.2654614652712" height="10" fill="#d97706" /><text x="669.2654614652712" y="211" font-size="11" fill="#334155">55.32</text><text x="20" y="254" font-size="14" fill="#334155">Svelte</text><rect x="170" y="232" width="558.7567396130669" height="10" fill="#2563eb" /><text x="736.7567396130669" y="241" font-size="11" fill="#334155">62.92</text><rect x="170" y="246" width="467.6435141135426" height="10" fill="#16a34a" /><text x="645.6435141135426" y="255" font-size="11" fill="#334155">52.66</text><rect x="170" y="260" width="521.1037107516651" height="10" fill="#d97706" /><text x="699.1037107516651" y="269" font-size="11" fill="#334155">58.68</text><text x="20" y="312" font-size="14" fill="#334155">Lit</text><rect x="170" y="290" width="524.6558832857596" height="10" fill="#2563eb" /><text x="702.6558832857596" y="299" font-size="11" fill="#334155">59.08</text><rect x="170" y="304" width="525.7215350459879" height="10" fill="#16a34a" /><text x="703.7215350459879" y="313" font-size="11" fill="#334155">59.2</text><rect x="170" y="318" width="517.1963209641611" height="10" fill="#d97706" /><text x="695.1963209641611" y="327" font-size="11" fill="#334155">58.24</text>
    <rect x="170" y="350" width="14" height="14" fill="#2563eb" /><text x="190" y="362" font-size="12" fill="#334155">Search</text><rect x="280" y="350" width="14" height="14" fill="#16a34a" /><text x="300" y="362" font-size="12" fill="#334155">Filter</text><rect x="390" y="350" width="14" height="14" fill="#d97706" /><text x="410" y="362" font-size="12" fill="#334155">Sort</text>
  </svg>
