<svg xmlns="http://www.w3.org/2000/svg" width="920" height="390" role="img" aria-label="Update time">
    <rect width="100%" height="100%" fill="#ffffff" />
    <text x="20" y="28" font-size="20" font-weight="700" fill="#0f172a">Update time, ms</text>
    <text x="20" y="80" font-size="14" fill="#334155">Web Components</text><rect x="170" y="58" width="554.7516401124649" height="10" fill="#2563eb" /><text x="732.7516401124649" y="67" font-size="11" fill="#334155">63.42</text><rect x="170" y="72" width="533.0584192439862" height="10" fill="#16a34a" /><text x="711.0584192439862" y="81" font-size="11" fill="#334155">60.94</text><rect x="170" y="86" width="538.6566697906904" height="10" fill="#d97706" /><text x="716.6566697906904" y="95" font-size="11" fill="#334155">61.58</text><text x="20" y="138" font-size="14" fill="#334155">React</text><rect x="170" y="116" width="560" height="10" fill="#2563eb" /><text x="738" y="125" font-size="11" fill="#334155">64.02</text><rect x="170" y="130" width="488.7972508591066" height="10" fill="#16a34a" /><text x="666.7972508591066" y="139" font-size="11" fill="#334155">55.88</text><rect x="170" y="144" width="513.4645423305218" height="10" fill="#d97706" /><text x="691.4645423305218" y="153" font-size="11" fill="#334155">58.7</text><text x="20" y="196" font-size="14" fill="#334155">Vue.js</text><rect x="170" y="174" width="530.7841299593878" height="10" fill="#2563eb" /><text x="708.7841299593878" y="183" font-size="11" fill="#334155">60.68</text><rect x="170" y="188" width="485.123398937832" height="10" fill="#16a34a" /><text x="663.123398937832" y="197" font-size="11" fill="#334155">55.46</text><rect x="170" y="202" width="458.5317088409872" height="10" fill="#d97706" /><text x="636.5317088409872" y="211" font-size="11" fill="#334155">52.42</text><text x="20" y="254" font-size="14" fill="#334155">Svelte</text><rect x="170" y="232" width="525.0109340830991" height="10" fill="#2563eb" /><text x="703.0109340830991" y="241" font-size="11" fill="#334155">60.02</text><rect x="170" y="246" width="516.7885035926273" height="10" fill="#16a34a" /><text x="694.7885035926273" y="255" font-size="11" fill="#334155">59.08</text><rect x="170" y="260" width="486.3480162449235" height="10" fill="#d97706" /><text x="664.3480162449234" y="269" font-size="11" fill="#334155">55.6</text><text x="20" y="312" font-size="14" fill="#334155">Lit</text><rect x="170" y="290" width="521.8619181505779" height="10" fill="#2563eb" /><text x="699.8619181505779" y="299" font-size="11" fill="#334155">59.66</text><rect x="170" y="304" width="487.04779756326155" height="10" fill="#16a34a" /><text x="665.0477975632616" y="313" font-size="11" fill="#334155">55.68</text><rect x="170" y="318" width="475.8512964698532" height="10" fill="#d97706" /><text x="653.8512964698532" y="327" font-size="11" fill="#334155">54.4</text>
    <rect x="170" y="350" width="14" height="14" fill="#2563eb" /><text x="190" y="362" font-size="12" fill="#334155">Search</text><rect x="280" y="350" width="14" height="14" fill="#16a34a" /><text x="300" y="362" font-size="12" fill="#334155">Filter</text><rect x="390" y="350" width="14" height="14" fill="#d97706" /><text x="410" y="362" font-size="12" fill="#334155">Sort</text>
  </svg>
